<mxfile host="app.diagrams.net" agent="Mozilla/5.0 (Windows NT 10.0; Win64; x64) AppleWebKit/537.36 (KHTML, like Gecko) Chrome/131.0.0.0 Safari/537.36" version="25.0.3">
  <diagram name="หน้า-1" id="NTkQXST-L7ACerm5ER2V">
    <mxGraphModel dx="1050" dy="530" grid="1" gridSize="10" guides="1" tooltips="1" connect="1" arrows="1" fold="1" page="1" pageScale="1" pageWidth="827" pageHeight="1169" math="0" shadow="0">
      <root>
        <mxCell id="0" />
        <mxCell id="1" parent="0" />
        <mxCell id="M0HFSPJLka2ahJuuSNo7-3" value="" style="edgeStyle=orthogonalEdgeStyle;rounded=0;orthogonalLoop=1;jettySize=auto;html=1;" edge="1" parent="1" source="M0HFSPJLka2ahJuuSNo7-1" target="M0HFSPJLka2ahJuuSNo7-2">
          <mxGeometry relative="1" as="geometry" />
        </mxCell>
        <mxCell id="M0HFSPJLka2ahJuuSNo7-1" value="Start" style="ellipse;whiteSpace=wrap;html=1;" vertex="1" parent="1">
          <mxGeometry x="354" y="10" width="120" height="80" as="geometry" />
        </mxCell>
        <mxCell id="M0HFSPJLka2ahJuuSNo7-9" value="" style="edgeStyle=orthogonalEdgeStyle;rounded=0;orthogonalLoop=1;jettySize=auto;html=1;" edge="1" parent="1" source="M0HFSPJLka2ahJuuSNo7-2" target="M0HFSPJLka2ahJuuSNo7-8">
          <mxGeometry relative="1" as="geometry" />
        </mxCell>
        <mxCell id="M0HFSPJLka2ahJuuSNo7-2" value="Read file" style="whiteSpace=wrap;html=1;" vertex="1" parent="1">
          <mxGeometry x="354" y="180" width="120" height="60" as="geometry" />
        </mxCell>
        <mxCell id="M0HFSPJLka2ahJuuSNo7-11" value="F" style="edgeStyle=orthogonalEdgeStyle;rounded=0;orthogonalLoop=1;jettySize=auto;html=1;" edge="1" parent="1" source="M0HFSPJLka2ahJuuSNo7-8" target="M0HFSPJLka2ahJuuSNo7-10">
          <mxGeometry relative="1" as="geometry" />
        </mxCell>
        <mxCell id="M0HFSPJLka2ahJuuSNo7-15" value="T" style="edgeStyle=orthogonalEdgeStyle;rounded=0;orthogonalLoop=1;jettySize=auto;html=1;" edge="1" parent="1" source="M0HFSPJLka2ahJuuSNo7-8" target="M0HFSPJLka2ahJuuSNo7-14">
          <mxGeometry relative="1" as="geometry" />
        </mxCell>
        <mxCell id="M0HFSPJLka2ahJuuSNo7-8" value="File 1 and 2 is multiply able" style="rhombus;whiteSpace=wrap;html=1;" vertex="1" parent="1">
          <mxGeometry x="361" y="310" width="106" height="80" as="geometry" />
        </mxCell>
        <mxCell id="M0HFSPJLka2ahJuuSNo7-10" value="Output error" style="shape=parallelogram;perimeter=parallelogramPerimeter;whiteSpace=wrap;html=1;fixedSize=1;" vertex="1" parent="1">
          <mxGeometry x="540" y="320" width="120" height="60" as="geometry" />
        </mxCell>
        <mxCell id="M0HFSPJLka2ahJuuSNo7-17" value="" style="edgeStyle=orthogonalEdgeStyle;rounded=0;orthogonalLoop=1;jettySize=auto;html=1;" edge="1" parent="1" source="M0HFSPJLka2ahJuuSNo7-14" target="M0HFSPJLka2ahJuuSNo7-16">
          <mxGeometry relative="1" as="geometry" />
        </mxCell>
        <mxCell id="M0HFSPJLka2ahJuuSNo7-14" value="Matrix1 x Matrix2" style="whiteSpace=wrap;html=1;" vertex="1" parent="1">
          <mxGeometry x="354" y="480" width="120" height="60" as="geometry" />
        </mxCell>
        <mxCell id="M0HFSPJLka2ahJuuSNo7-19" value="" style="edgeStyle=orthogonalEdgeStyle;rounded=0;orthogonalLoop=1;jettySize=auto;html=1;" edge="1" parent="1" source="M0HFSPJLka2ahJuuSNo7-16" target="M0HFSPJLka2ahJuuSNo7-18">
          <mxGeometry relative="1" as="geometry" />
        </mxCell>
        <mxCell id="M0HFSPJLka2ahJuuSNo7-16" value="Output Matrix1" style="shape=parallelogram;perimeter=parallelogramPerimeter;whiteSpace=wrap;html=1;fixedSize=1;" vertex="1" parent="1">
          <mxGeometry x="354" y="620" width="120" height="60" as="geometry" />
        </mxCell>
        <mxCell id="M0HFSPJLka2ahJuuSNo7-21" value="" style="edgeStyle=orthogonalEdgeStyle;rounded=0;orthogonalLoop=1;jettySize=auto;html=1;" edge="1" parent="1" source="M0HFSPJLka2ahJuuSNo7-18" target="M0HFSPJLka2ahJuuSNo7-20">
          <mxGeometry relative="1" as="geometry" />
        </mxCell>
        <mxCell id="M0HFSPJLka2ahJuuSNo7-18" value="Output Matrix2" style="shape=parallelogram;perimeter=parallelogramPerimeter;whiteSpace=wrap;html=1;fixedSize=1;" vertex="1" parent="1">
          <mxGeometry x="354" y="760" width="120" height="60" as="geometry" />
        </mxCell>
        <mxCell id="M0HFSPJLka2ahJuuSNo7-23" value="" style="edgeStyle=orthogonalEdgeStyle;rounded=0;orthogonalLoop=1;jettySize=auto;html=1;" edge="1" parent="1" source="M0HFSPJLka2ahJuuSNo7-20" target="M0HFSPJLka2ahJuuSNo7-22">
          <mxGeometry relative="1" as="geometry" />
        </mxCell>
        <mxCell id="M0HFSPJLka2ahJuuSNo7-20" value="Output result&amp;nbsp;&lt;div&gt;Matrix1 x Matrix2&lt;/div&gt;" style="shape=parallelogram;perimeter=parallelogramPerimeter;whiteSpace=wrap;html=1;fixedSize=1;" vertex="1" parent="1">
          <mxGeometry x="354" y="900" width="120" height="60" as="geometry" />
        </mxCell>
        <mxCell id="M0HFSPJLka2ahJuuSNo7-26" value="" style="edgeStyle=orthogonalEdgeStyle;rounded=0;orthogonalLoop=1;jettySize=auto;html=1;" edge="1" parent="1" source="M0HFSPJLka2ahJuuSNo7-22" target="M0HFSPJLka2ahJuuSNo7-25">
          <mxGeometry relative="1" as="geometry" />
        </mxCell>
        <mxCell id="M0HFSPJLka2ahJuuSNo7-22" value="" style="shape=waypoint;sketch=0;size=6;pointerEvents=1;points=[];fillColor=default;resizable=0;rotatable=0;perimeter=centerPerimeter;snapToPoint=1;" vertex="1" parent="1">
          <mxGeometry x="404" y="1060" width="20" height="20" as="geometry" />
        </mxCell>
        <mxCell id="M0HFSPJLka2ahJuuSNo7-24" style="edgeStyle=orthogonalEdgeStyle;rounded=0;orthogonalLoop=1;jettySize=auto;html=1;exitX=0.5;exitY=1;exitDx=0;exitDy=0;entryX=1.14;entryY=0.58;entryDx=0;entryDy=0;entryPerimeter=0;" edge="1" parent="1" source="M0HFSPJLka2ahJuuSNo7-10" target="M0HFSPJLka2ahJuuSNo7-22">
          <mxGeometry relative="1" as="geometry">
            <Array as="points">
              <mxPoint x="600" y="1070" />
            </Array>
          </mxGeometry>
        </mxCell>
        <mxCell id="M0HFSPJLka2ahJuuSNo7-25" value="End" style="ellipse;whiteSpace=wrap;html=1;" vertex="1" parent="1">
          <mxGeometry x="354" y="1180" width="120" height="80" as="geometry" />
        </mxCell>
      </root>
    </mxGraphModel>
  </diagram>
</mxfile>
